inDegrees=yes
name=IMU_IK_results.mot
DataType=double
version=3
OpenSimVersion=4.4-2022-08-12-dcf8e2cb1
endheader
time	TH_y	TH_x	TH_z	TH_x_trans	TH_y_trans	TH_z_trans	SC_y	SC_z	SC_x	AC_y	AC_z	AC_x	GH_y	GH_z	GH_x	EL_x	PS_y
52.23999999999818	-175.2568432285659	-1.504076995868326	3.076023596145546	0	0	0	-21.7838553708739	6.302535746439055	0	46.29498984657052	4.898789148368539	-1.180293057969496	-40.48070851527236	39.28109745884212	7.665439627828562	103.1740327961625	109.2518837719134
52.24999999999817	-175.335460548102	-1.521253972580839	3.273957650124286	0	0	0	-21.7838553708739	6.302535746439055	0	46.29498984657052	4.898789148368539	-1.180293057969496	-41.42294542013985	40.28202794772698	8.526229494363657	103.3331829422471	109.5009606929877
52.25999999999817	-175.4280784388257	-1.533031768755655	3.471486537539693	0	0	0	-21.7838553708739	6.302535746439055	0	46.29498984657052	4.898789148368539	-1.180293057969496	-42.3586460772182	41.26727581138313	9.436657726017364	103.4703870690499	109.7645346465976
52.26999999999817	-175.5359147893054	-1.539408967997903	3.672917743868514	0	0	0	-21.7838553708739	6.302535746439055	0	46.29498984657052	4.898789148368539	-1.180293057969496	-43.28577293712403	42.23045016906546	10.39766402107897	103.5793517425327	110.0423041481061
52.27999999999817	-175.632553851026	-1.546390278093716	3.875635483680479	0	0	0	-21.7838553708739	6.302535746439055	0	46.29498984657052	4.898789148368539	-1.180293057969496	-44.24599978683754	43.18400479466109	11.38616223592635	103.6999296704065	110.3316685391733
52.28999999999817	-175.7512397033784	-1.550000183103015	4.078483133560009	0	0	0	-21.7838553708739	6.302535746439055	0	46.29498984657052	4.898789148368539	-1.180293057969496	-45.19750395295992	44.11206334805574	12.43043707652322	103.7926082754166	110.6275044536592
52.29999999999816	-175.8740697937517	-1.547360561436837	4.291201594109268	0	0	0	-21.7838553708739	6.302535746439055	2.500064114129973e-33	46.29498984657052	4.898789148368539	-1.180293057969496	-46.14516558524208	45.01245516402554	13.50573867071149	103.872270678781	110.9259521656487
52.30999999999816	-176.0020089537682	-1.536637697136784	4.509319293665984	0	0	0	-21.7838553708739	6.302535746439055	-8.620910738379216e-34	46.29498984657052	4.898789148368539	-1.180293057969496	-47.08860128892293	45.88996082277885	14.60674498489628	103.944927715043	111.2173297367831
52.31999999999816	-176.1403509595694	-1.523098765399864	4.735240860382635	0	0	0	-21.7838553708739	6.302535746439055	0	46.29498984657052	4.898789148368539	-1.180293057969496	-48.01911701792061	46.72574536447976	15.73696697248377	104.0082485493271	111.5073885137565
52.32999999999816	-176.2843383334969	-1.492485133067307	4.965525288939335	0	0	0	-21.7838553708739	6.302535746439055	0	46.29498984657052	4.898789148368539	-1.180293057969496	-48.938559475557	47.54669494613396	16.8738070483031	104.0715289533909	111.7783984253608
52.33999999999816	-176.4285673795457	-1.454900083200484	5.20520249492637	0	0	0	-21.7838553708739	6.302535746439055	0	46.29498984657052	4.898789148368539	-1.180293057969496	-49.84256835934774	48.3204775356702	18.01853426528676	104.1325078651713	112.0404570958909
52.34999999999815	-176.5800431354693	-1.407149223564691	5.449859062734419	0	0	0	-21.7838553708739	6.302535746439055	0	46.29498984657052	4.898789148368539	-1.180293057969496	-50.72630922626794	49.06253715999288	19.17025883883687	104.1923892190726	112.2828418787387
52.35999999999815	-176.742077530797	-1.350688930903166	5.705588321847862	0	0	0	-21.7838553708739	6.302535746439055	0	46.29498984657052	4.898789148368539	-1.180293057969496	-51.58419729929975	49.75572623964874	20.31678780319744	104.2625395064021	112.5032089188145
52.36999999999815	-176.9060731687065	-1.278671927560784	5.961316251833121	0	0	0	-21.7838553708739	6.302535746439055	0	46.29498984657052	4.898789148368539	-1.180293057969496	-52.41587807778455	50.41831425388872	21.45269266873893	104.3330025253414	112.6979773714857
52.37999999999815	-177.0756646264251	-1.201736611297954	6.225659015941868	0	0	0	-21.7838553708739	6.302535746439055	0	46.29498984657052	4.898789148368539	-1.180293057969496	-53.22944538283008	51.03322914775549	22.58155909905541	104.41602614032	112.871122463579
52.38999999999815	-177.2486940704341	-1.113415083190026	6.486272982025945	0	0	0	-21.7838553708739	6.302535746439055	0	46.29498984657052	4.898789148368539	-1.180293057969496	-54.02123265776078	51.61445687891221	23.69824851270265	104.5014912616183	113.0165093358336
52.39999999999814	-177.4264865420845	-1.014177258234524	6.748605976232776	0	0	0	-21.7838553708739	6.302535746439055	0	46.29498984657052	4.898789148368539	-1.180293057969496	-54.7840691337878	52.15954999185699	24.79663610484441	104.5940528645618	113.1389795921893
52.40999999999814	-177.6023223159274	-0.916583324809173	7.009023457735136	0	0	0	-21.7838553708739	6.302535746439055	1.616420763446103e-35	46.29498984657052	4.898789148368539	-1.180293057969496	-55.54233655656471	52.65456248433193	25.8854841367068	104.6988417736215	113.2529199677197
52.41999999999814	-177.7769638160243	-0.8166174629069608	7.262390957446648	0	0	0	-21.7838553708739	6.302535746439055	0	46.29498984657052	4.898789148368539	-1.180293057969496	-56.29044440198735	53.12071224342294	26.9684057281061	104.8051272848766	113.3525858237902
52.42999999999814	-177.9538291235845	-0.7089342921869096	7.507705995717018	0	0	0	-21.7838553708739	6.302535746439055	0	46.29498984657052	4.898789148368539	-1.180293057969496	-57.0264379716605	53.54550463448809	28.03370684018672	104.9150534706279	113.4326292909899
52.43999999999814	-178.1321751382342	-0.6061117139999336	7.736166575550318	0	0	0	-21.7838553708739	6.302535746439055	0	46.29498984657052	4.898789148368539	-1.180293057969496	-57.76551845674393	53.95104089805002	29.10663456558733	105.0175181412239	113.5069356133927
52.44999999999813	-178.2993483401728	-0.5039369690695461	7.948822692040973	0	0	0	-21.7838553708739	6.302535746439055	0	46.29498984657052	4.898789148368539	-1.180293057969496	-58.50352764602008	54.32658890996556	30.16935507474701	105.1181060231823	113.5891923710825
52.45999999999813	-178.4794662373437	-0.4097391846136706	8.160684911422964	0	0	0	-21.7838553708739	6.302535746439055	0	46.29498984657052	4.898789148368539	-1.180293057969496	-59.24534853270967	54.66630348798304	31.23697003996555	105.2248621575295	113.6484188713461
52.46999999999813	-178.6482407669837	-0.3211275948479078	8.345262012933848	0	0	0	-21.7838553708739	6.302535746439055	0	46.29498984657052	4.898789148368539	-1.180293057969496	-59.99427878390902	54.98981639746712	32.30589148197109	105.3178512281742	113.7293080651254
52.47999999999813	-178.8047849167356	-0.2395430045350415	8.507264643902513	0	0	0	-21.7838553708739	6.302535746439055	0	46.29498984657052	4.898789148368539	-1.180293057969496	-60.74752106631437	55.29504608274426	33.37089941935972	105.3945102089078	113.8287647287583
52.48999999999813	-178.9454403517902	-0.1652865195689522	8.648288466614945	0	0	0	-21.7838553708739	6.302535746439055	0	46.29498984657052	4.898789148368539	-1.180293057969496	-61.50132268212949	55.58057180515836	34.42445709818327	105.4515852564453	113.9510453736475
52.49999999999812	-179.0666039523573	-0.1008892889335023	8.772723222064718	0	0	0	-21.7838553708739	6.302535746439055	0	46.29498984657052	4.898789148368539	-1.180293057969496	-62.26308320006247	55.84847220856265	35.46392365984763	105.491444211186	114.0862886705522
52.50999999999812	-179.2030046527096	-0.04852591625038277	8.882894376887517	0	0	0	-21.7838553708739	6.302535746439055	0	46.29498984657052	4.898789148368539	-1.180293057969496	-62.99890070095813	56.09567526091682	36.49586715300912	105.5290252290888	114.2359514045441
52.51999999999812	-179.3144616164614	-0.005318058969040155	8.974972563804434	0	0	0	-21.7838553708739	6.302535746439055	0	46.29498984657052	4.898789148368539	-1.180293057969496	-63.73202812748914	56.33418768913491	37.49572488383919	105.5471400706229	114.4023081113306
52.52999999999812	-179.4263855185748	0.02826981941471701	9.050683010045923	0	0	0	-21.7838553708739	6.302535746439055	0	46.29498984657052	4.898789148368539	-1.180293057969496	-64.43020408714524	56.55525196506865	38.46919691267786	105.5592515156043	114.5832861081981
52.53999999999812	-179.5237202071803	0.05292076559387915	9.111994039255537	0	0	0	-21.7838553708739	6.302535746439055	0	46.29498984657052	4.898789148368539	-1.180293057969496	-65.10890850587883	56.76727153581825	39.40409817780095	105.5602746999557	114.7782901834095
52.54999999999811	-179.6057713945517	0.0720458033617658	9.167957752519708	0	0	0	-21.7838553708739	6.302535746439055	0	46.29498984657052	4.898789148368539	-1.180293057969496	-65.72748773963141	56.96798845131379	40.25439447873979	105.5520618587464	114.9952409595089
52.55999999999811	-179.663628637507	0.07893114387886638	9.211846098008213	0	0	0	-21.7838553708739	6.302535746439055	0	46.29498984657052	4.898789148368539	-1.180293057969496	-66.34349273828451	57.16134833985776	41.08854545419898	105.5173400378091	115.2143467761173
52.56999999999811	-179.7319471144428	0.09189859754901769	9.249009372566507	0	0	0	-21.7838553708739	6.302535746439055	0	46.29498984657052	4.898789148368539	-1.180293057969496	-66.82745575989652	57.35192424461005	41.77159156489769	105.5265148555674	115.4463207408656
52.57999999999811	-179.7829287677905	0.09567010348074512	9.291512183968766	0	0	0	-21.7838553708739	6.302535746439055	0	46.29498984657052	4.898789148368539	-1.180293057969496	-67.26858214427094	57.52544425398665	42.40469724933117	105.5016163820067	115.6878334849798
52.58999999999811	-179.8207531678613	0.1001262163998981	9.319031782244174	0	0	0	-21.7838553708739	6.302535746439055	0	46.29498984657052	4.898789148368539	-1.180293057969496	-67.6523033291061	57.707766510586	42.94240591213932	105.5074671266253	115.9212750729853
52.5999999999981	-179.834670959484	0.09966054785869977	9.337797091157929	0	0	0	-21.7838553708739	6.302535746439055	0	46.29498984657052	4.898789148368539	-1.180293057969496	-67.9937248964161	57.89248367436532	43.40581918883971	105.5160146866549	116.1520780379636
52.6099999999981	-179.8606465553922	0.09981240178737834	9.359478630482277	0	0	0	-21.7838553708739	6.302535746439055	0	46.29498984657052	4.898789148368539	-1.180293057969496	-68.25574925137991	58.06849810462528	43.79223523083636	105.5361407398214	116.3816402714166
52.6199999999981	-179.8546572530043	0.128797249403532	9.406852649645717	0	0	0	-21.7838553708739	6.302535746439055	0	46.29498984657052	4.898789148368539	-1.180293057969496	-68.29615365375304	58.23095382607413	43.91075662166504	105.5730528368897	116.6581406697263
52.6299999999981	-179.8555646649613	0.1373006605528166	9.442651807980674	0	0	0	-21.7838553708739	6.302535746439055	0	46.29498984657052	4.898789148368539	-1.180293057969496	-68.34571001984669	58.39707973529809	44.0348580098077	105.6147744420938	116.9033029307741
52.6399999999981	-179.8483623539587	0.1315201434266522	9.465170767242247	0	0	0	-21.7838553708739	6.302535746439055	0	46.29498984657052	4.898789148368539	-1.180293057969496	-68.39005370497055	58.56435835412557	44.13644201778629	105.661212640078	117.1255489513803
52.64999999999809	-179.8347763528857	0.1161555655960158	9.477004796496333	0	0	0	-21.7838553708739	6.302535746439055	0	46.29498984657052	4.898789148368539	-1.180293057969496	-68.41506292309538	58.7308510468981	44.20370111794813	105.7156794686655	117.3323040657787
52.65999999999809	-179.8144824768663	0.09423721470245247	9.475859188750238	0	0	0	-21.7838553708739	6.302535746439055	0	46.29498984657052	4.898789148368539	-1.180293057969496	-68.41228364327361	58.89729934332826	44.2309073422342	105.7790801709444	117.5307593764802
52.66999999999809	-179.7873774384423	0.07524906186780034	9.46558950555152	0	0	0	-21.7838553708739	6.302535746439055	0	46.29498984657052	4.898789148368539	-1.180293057969496	-68.35159780465575	59.0665592191469	44.18391531791445	105.8577187160666	117.7240751350933
52.67999999999809	-179.769989076264	0.08628470427576679	9.518182979286873	0	0	0	-21.7838553708739	6.302535746439055	0	46.29498984657052	4.898789148368539	-1.180293057969496	-67.98291065529577	59.17947936929158	43.8414338051187	105.9333093185479	117.9621448609234
